<svg width="224" height="48" viewBox="0 0 224 48" fill="none" xmlns="http://www.w3.org/2000/svg">
<g clip-path="url(#clip0_8476_6181)">
<mask id="mask0_8476_6181" style="mask-type:luminance" maskUnits="userSpaceOnUse" x="1" y="0" width="32" height="46">
<path d="M12.3674 9.63596C6.31059 14.3404 7.48077 23.9479 10.1581 30.252C10.7198 31.5772 11.5343 33.2337 12.9759 33.7354C13.341 33.3094 11.2815 29.9396 10.9726 29.1824C8.80073 23.9479 7.48077 14.8042 12.7513 11.0179C16.2056 8.52848 21.4855 9.5981 23.0956 13.6872C23.882 15.6845 24.9211 20.7391 25.3798 23.0487C26.6623 29.4474 26.1381 35.7137 20.4183 39.6513C12.9947 44.7628 6.24506 40.2666 3.21196 32.8077C2.34135 30.678 2.61283 34.6819 3.53961 36.1964C6.114 40.3897 11.6092 44.2422 16.6456 42.7939C18.6302 42.226 19.9221 41.4119 21.8038 39.9448C23.6948 38.4776 27.7389 34.5778 26.9525 25.4151C26.6623 22.017 24.8462 18.2686 24.556 15.1639C24.5186 14.7284 24.4811 14.6433 24.8649 14.3593C25.2768 14.7284 25.6232 15.0692 25.8479 15.5993C31.212 28.2548 26.6717 47.735 9.7556 43.1725C6.90036 42.4058 6.97525 44.1002 11.1504 44.9237C26.6811 48.0095 31.9422 30.2331 27.5142 17.3883C26.0445 13.1382 21.111 8.23505 16.3741 8.23505C14.9886 8.23505 13.6125 8.65154 12.3487 9.63596M4.03577 6.74895C2.91239 8.23505 1.6018 11.9172 1.42393 17.0854C1.39584 17.9089 1.37712 18.6093 1.37712 19.2057V19.395C1.37712 21.5342 1.55499 22.4713 1.78902 23.8249C2.7907 29.6935 4.98127 37.3512 10.5139 40.0773C17.0388 43.2956 23.6199 36.8874 24.6964 30.5644C24.8556 29.6273 25.4828 23.8059 24.3875 23.7965C23.6854 24.6673 24.116 26.1723 23.985 27.365C23.545 31.4541 22.1782 37.5311 17.2635 37.9475C5.19658 38.9698 2.9592 20.228 6.22634 11.8698C10.5513 0.804564 26.887 2.54623 31.7643 12.3526C32.6911 14.2173 31.343 9.2952 30.2571 8.16879C24.659 2.35692 13.9589 0.993875 7.93948 6.9004C1.82647 12.8921 3.2026 28.8606 8.09862 35.3066C8.92243 36.3857 11.5062 38.7048 12.8449 38.7048H16.8984C16.9265 39.7081 15.3163 39.9637 14.5674 39.9637C2.05114 39.9637 0.000990987 12.9868 6.59144 6.02957C12.3019 -1.17868e-05 23.545 1.08853 29.5363 6.16209C31.1465 7.52513 32.5226 7.09918 31.6333 6.27567C27.1585 2.13921 22.0752 0.246094 17.3196 0.246094C12.0398 0.246094 7.18121 2.57463 4.03577 6.74895Z" fill="white"/>
</mask>
<g mask="url(#mask0_8476_6181)">
<path d="M32.6895 0H-0.000564575V48H32.6895V0Z" fill="url(#paint0_linear_8476_6181)"/>
</g>
<mask id="mask1_8476_6181" style="mask-type:luminance" maskUnits="userSpaceOnUse" x="5" y="5" width="28" height="39">
<path d="M15.2033 17.4733C14.9974 18.9688 15.1565 24.5062 15.8118 25.7557C15.9148 25.9544 16.1676 26.2384 16.4016 26.2763C16.6824 23.0674 16.2518 19.8491 16.4016 16.5835C16.8322 16.6971 16.9539 17.1514 17.0663 17.5206C18.0118 20.5212 18.0866 27.9044 17.0663 30.053L16.1114 32.5236C16.5514 32.8643 17.759 31.3025 18.0118 30.2613C18.7326 27.2702 19.0041 19.3664 18.0492 16.5172C17.7028 15.4855 17.2441 15.0595 16.7948 15.0595C16.0739 15.0595 15.3718 16.1292 15.194 17.4638M6.16955 15.7884C5.07427 22.0168 6.81549 35.9028 14.8101 36.7073C20.3521 37.2658 22.1121 33.2051 22.758 28.3587C23.4414 23.2378 24.3775 9.91973 16.2799 10.6202C7.31165 11.3964 9.80179 30.4317 15.194 34.0854C16.8135 35.1834 17.8901 34.748 18.9666 33.2145C21.1104 30.1761 21.4193 19.1392 20.0994 15.7032C19.0696 13.0055 16.1301 12.0116 14.2017 14.4727C11.749 17.5869 13.2936 26.3047 14.6791 29.8921C15.2033 31.2362 16.0178 31.4729 15.9054 29.9111C15.8025 28.4628 14.8757 26.7022 14.5574 25.2918C14.0612 23.039 13.5276 15.5991 15.8212 14.3875C17.6279 13.4315 18.8449 15.1731 19.2756 16.7917C20.1462 20.0668 19.7717 27.9611 18.6764 31.1984C18.3113 32.2869 18.1335 33.2903 16.4016 33.489C15.1097 33.4985 14.5761 32.1544 13.9021 30.6778C12.0392 26.5602 10.4103 18.0033 13.1064 14.1225C15.4186 10.7906 19.2662 11.1881 20.9512 14.8513C22.7674 18.8269 22.3274 30.7819 19.4628 34.2084C16.6075 37.6255 11.4775 34.6438 9.652 31.5013C6.30061 25.7178 5.3083 14.1414 10.8784 9.3802C15.3999 5.50877 20.0806 7.07059 24.1529 10.6202C31.0803 16.6687 30.8369 26.4183 29.0395 34.5776C27.9255 39.6701 25.3792 40.6924 23.0108 43.4847C21.9997 44.6679 26.5868 41.885 27.2515 41.1088C29.6574 38.2692 31.4454 32.7318 31.3424 27.8002C31.1926 20.7484 30.5093 14.0373 24.6396 9.38966C23.6099 8.57562 22.1027 8.10234 21.2415 7.41135C20.9606 7.18418 21.1104 6.94754 21.0917 6.65411C23.6754 6.85288 26.7366 9.36126 28.3093 11.3964C30.3595 14.0278 30.4344 16.2143 31.5297 19.073C32.3628 21.2311 32.3909 16.6403 31.1926 13.9426C28.6651 8.24432 23.3571 5.31946 18.2458 5.31946C12.7132 5.31946 7.42398 8.746 6.17891 15.7979" fill="white"/>
</mask>
<g mask="url(#mask1_8476_6181)">
<path d="M32.3811 5.31012H5.07381V44.668H32.3811V5.31012Z" fill="#8DD7F3"/>
</g>
<path d="M50.1862 22.7269C49.5777 22.3861 48.9037 22.1116 48.1829 21.9223C47.462 21.733 46.788 21.5153 46.1795 21.2692C45.571 21.0231 45.0562 20.7107 44.6443 20.3321C44.2324 19.944 44.0264 19.395 44.0264 18.6662C44.0264 18.4106 44.0826 18.1266 44.1855 17.8237C44.2885 17.5208 44.4664 17.2369 44.7191 16.9718C44.9719 16.7068 45.3089 16.4891 45.7302 16.3187C46.1514 16.1483 46.6757 16.0631 47.3123 16.0631C47.9769 16.0631 48.5761 16.1956 49.1003 16.4701C49.6245 16.7446 50.0271 17.1043 50.3173 17.5587L52.1802 15.8454C51.5436 15.0598 50.8041 14.5392 49.9615 14.2836C49.119 14.028 48.239 13.8955 47.3123 13.8955C46.2919 13.8955 45.4306 14.0564 44.7004 14.3688C43.9796 14.6812 43.3898 15.0692 42.9218 15.5425C42.463 16.0063 42.126 16.5269 41.9107 17.0854C41.6954 17.6439 41.5924 18.174 41.5924 18.6756C41.5924 19.7831 41.7984 20.6634 42.2103 21.3165C42.6222 21.9697 43.1371 22.4808 43.7456 22.8689C44.3541 23.257 45.0281 23.5599 45.7489 23.7681C46.4697 23.9858 47.1438 24.213 47.7522 24.4402C48.3607 24.6768 48.8756 24.9608 49.2875 25.311C49.6994 25.6518 49.9054 26.1629 49.9054 26.816C49.9054 27.2799 49.8024 27.6963 49.5965 28.0466C49.3905 28.3968 49.119 28.6997 48.8007 28.9363C48.4731 29.173 48.108 29.3528 47.7148 29.4759C47.3123 29.5989 46.9284 29.6557 46.5446 29.6557C45.8612 29.6557 45.1966 29.5043 44.5506 29.2108C43.9047 28.9174 43.3805 28.4536 42.9686 27.8289L41.0869 29.4664C41.658 30.271 42.435 30.8673 43.3992 31.2459C44.3728 31.634 45.3932 31.8233 46.4697 31.8233C47.2842 31.8233 48.0425 31.7003 48.7539 31.4636C49.4654 31.227 50.0926 30.8768 50.6168 30.4224C51.1411 29.9775 51.5624 29.4191 51.8713 28.7565C52.1802 28.0939 52.3393 27.3556 52.3393 26.5415C52.3393 25.5098 52.1334 24.7052 51.7215 24.1183C51.3096 23.5315 50.7947 23.0677 50.1862 22.7174" fill="#F9F9F9"/>
<path d="M69.4333 21.2502C69.115 20.7769 68.675 20.3983 68.1227 20.1048C67.561 19.8114 66.8496 19.6694 65.9789 19.6694C65.2956 19.6694 64.6215 19.8493 63.9569 20.1995C63.2922 20.5497 62.7773 21.0798 62.4122 21.7897C62.0471 21.0798 61.5791 20.5497 61.008 20.1995C60.437 19.8493 59.7255 19.6694 58.883 19.6694C58.3775 19.6694 57.9094 19.7452 57.4881 19.8966C57.0669 20.0481 56.7018 20.2374 56.3928 20.4551C56.0839 20.6728 55.8312 20.9 55.6252 21.1461C55.4286 21.3922 55.3069 21.5909 55.2601 21.7519H55.2133V19.9723H53.21V31.3973H55.3537V25.4718C55.3537 24.8282 55.438 24.2697 55.5971 23.7964C55.7563 23.3231 55.9716 22.9351 56.2431 22.6322C56.5145 22.3293 56.8235 22.1021 57.1792 21.9412C57.5349 21.7897 57.9094 21.714 58.2839 21.714C58.8081 21.714 59.2294 21.8087 59.5383 21.9885C59.8472 22.1778 60.0906 22.4334 60.2498 22.7552C60.4183 23.0865 60.5306 23.4746 60.5868 23.9289C60.6429 24.3833 60.671 24.8755 60.671 25.4245V31.3973H62.8148V25.1595C62.8148 24.1467 63.0395 23.3231 63.4794 22.6795C63.9194 22.0358 64.659 21.714 65.6981 21.714C66.2223 21.714 66.6436 21.8087 66.9619 21.9885C67.2802 22.1683 67.5236 22.4145 67.7014 22.7268C67.8793 23.0297 67.9917 23.3894 68.0478 23.787C68.104 24.194 68.1321 24.6105 68.1321 25.0364V31.3973H70.2758V24.743C70.2758 24.0993 70.2197 23.4746 70.098 22.8783C69.9763 22.2725 69.761 21.7329 69.4427 21.2597" fill="#F9F9F9"/>
<path d="M80.7798 29.3147V23.4839C80.7798 22.9822 80.6862 22.5089 80.5083 22.0546C80.3211 21.6002 80.0402 21.1932 79.6658 20.8335C79.2819 20.4833 78.7951 20.1993 78.196 19.9911C77.5969 19.7828 76.8854 19.6787 76.0616 19.6787C75.2378 19.6787 74.4702 19.8207 73.6744 20.1047C72.8787 20.3886 72.1766 20.8051 71.5775 21.3731L72.8694 22.7172C73.0566 22.5752 73.2625 22.4237 73.4685 22.2628C73.6744 22.1019 73.9085 21.9599 74.1612 21.8369C74.414 21.7138 74.6948 21.6192 75.0038 21.534C75.3127 21.4582 75.6778 21.4109 76.0897 21.4109C76.5484 21.4109 76.9509 21.4772 77.2786 21.6192C77.6156 21.7517 77.8871 21.941 78.1118 22.1682C78.3364 22.4048 78.5049 22.6604 78.6173 22.9538C78.7296 23.2472 78.7858 23.5312 78.7858 23.8246V24.3074H77.2131C76.3518 24.3074 75.5467 24.3736 74.7978 24.5156C74.0395 24.6576 73.3842 24.8753 72.8226 25.1877C72.2609 25.5 71.8115 25.9071 71.4839 26.4087C71.1562 26.9104 70.9971 27.5257 70.9971 28.264C70.9971 28.8319 71.1 29.3241 71.306 29.7501C71.512 30.176 71.7928 30.5357 72.1485 30.8197C72.5043 31.1037 72.9255 31.3214 73.403 31.4728C73.8804 31.6148 74.3766 31.6905 74.9008 31.6905C75.762 31.6905 76.511 31.5391 77.1663 31.2362C77.8216 30.9333 78.3832 30.4127 78.8607 29.6744H78.9075C78.9075 30.2518 78.9356 30.8292 78.973 31.4066H80.8827C80.8547 31.1037 80.8266 30.7818 80.8078 30.4411C80.7891 30.1003 80.7891 29.7312 80.7891 29.3336M78.7764 26.617C78.7764 27.0051 78.7203 27.3932 78.6079 27.7907C78.4956 28.1883 78.3083 28.5385 78.0556 28.8603C77.8028 29.1822 77.4658 29.4377 77.0539 29.646C76.642 29.8448 76.1365 29.9489 75.5561 29.9489C74.8072 29.9489 74.2174 29.8069 73.7774 29.5135C73.3374 29.22 73.1221 28.7467 73.1221 28.0936C73.1221 27.6393 73.2625 27.2701 73.5434 26.9861C73.8242 26.6927 74.18 26.475 74.6199 26.3141C75.0599 26.1532 75.5374 26.0491 76.071 25.9923C76.6046 25.9355 77.1194 25.9071 77.6343 25.9071H78.7764V26.6265V26.617Z" fill="#F9F9F9"/>
<path d="M93.8846 29.6555C93.4727 29.6555 93.1544 29.5798 92.9391 29.4283C92.7238 29.2769 92.5647 29.0781 92.4617 28.8225C92.3587 28.5764 92.3026 28.2925 92.2838 27.9801C92.2651 27.6677 92.2651 27.3459 92.2651 27.0241V21.8464H95.3357V19.9627H92.2651V16.7539H90.1213V19.9627H88.1835V19.8208C87.9027 19.7261 87.5844 19.6788 87.238 19.6788C86.8916 19.6788 86.5359 19.7261 86.1895 19.8302C85.8432 19.9343 85.5155 20.0763 85.2253 20.2562C84.9351 20.436 84.6636 20.6443 84.4296 20.8904C84.1862 21.1365 83.999 21.4204 83.8585 21.7233H83.8117V19.9627H81.668V31.3877H83.8117V25.6516C83.8117 24.4021 84.0926 23.4745 84.6449 22.8781C85.1972 22.2818 86.0023 21.9884 87.0508 21.9884C87.2287 21.9884 87.3972 22.0073 87.575 22.0357C87.7529 22.0641 87.9214 22.1114 88.0993 22.1588V21.8464H90.1213V27.8002C90.1213 28.2641 90.1401 28.7279 90.1775 29.1822C90.215 29.6366 90.346 30.0531 90.5613 30.4222C90.7766 30.7914 91.1136 31.0943 91.563 31.3309C92.0123 31.5581 92.6583 31.6811 93.4821 31.6811C93.7068 31.6811 94.0157 31.6527 94.4276 31.596C94.8301 31.5392 95.1671 31.435 95.4199 31.2931V29.3147C95.1952 29.4473 94.9518 29.5325 94.6804 29.5798C94.4089 29.6271 94.1468 29.6555 93.894 29.6555" fill="#F9F9F9"/>
<path d="M103.958 28.444L108.929 14.4538H109.594C112.056 14.4538 112.299 14.8324 112.103 18.382L111.953 21.7423L112.327 21.695L114.79 13.9521H99.9985L96.9935 21.695L97.3117 21.7423L99.5491 18.382C101.861 14.8514 102.376 14.4538 104.82 14.4538H105.531L100.56 28.444C99.9236 30.2898 99.5023 30.6305 97.9764 30.8104L95.739 31.0375L95.7109 31.3878H106.86V31.0375L104.895 30.8104C103.472 30.64 103.322 30.2898 103.958 28.444Z" fill="#F9F9F9"/>
<path d="M137.023 24.7338C136.405 25.4437 135.872 26.0495 135.432 26.5323C134.992 27.0245 134.626 27.4126 134.336 27.6965C134.065 27.971 133.746 28.255 133.381 28.5579C133.016 28.8608 132.604 29.1732 132.146 29.495C131.687 29.8168 131.228 30.1008 130.76 30.3374C130.292 30.5741 129.815 30.7634 129.328 30.8959L134.477 22.1118L130.985 22.2633L130.358 23.4275V23.4559C130.255 23.2004 130.124 22.9827 129.964 22.7933C129.805 22.604 129.618 22.4526 129.403 22.339C129.187 22.2254 128.953 22.1308 128.71 22.074C128.467 22.0172 128.205 21.9888 127.914 21.9888C127.006 21.9888 126.136 22.1686 125.293 22.5378C124.451 22.8975 123.636 23.4465 122.84 24.1753C122.054 24.9042 121.464 25.6709 121.08 26.4849C120.697 27.299 120.5 28.1509 120.5 29.0501C120.5 29.2867 120.519 29.5044 120.566 29.7222C120.378 29.8925 120.182 30.0629 119.976 30.2428C119.639 30.5173 119.33 30.7255 119.049 30.8675C118.759 31.0095 118.506 31.0852 118.272 31.0852C118.188 31.0852 118.113 31.0663 118.038 31.0189C117.963 30.9811 117.898 30.9148 117.851 30.8296C117.785 30.7444 117.738 30.6592 117.71 30.5741C117.682 30.4889 117.673 30.4037 117.673 30.3185C117.673 30.0345 117.71 29.7316 117.795 29.4193C117.879 29.1069 118.001 28.7851 118.169 28.4632C118.356 28.1225 118.553 27.7722 118.768 27.4126C118.984 27.0529 119.227 26.6553 119.498 26.2294L122.185 22.2633L118.618 22.3863C118.553 22.5378 118.497 22.6798 118.441 22.8217C118.394 22.9543 118.338 23.0773 118.291 23.1814C118.244 23.2856 118.188 23.3802 118.132 23.4559C118.075 23.5411 118.001 23.6169 117.916 23.6831V23.7115C117.851 23.4275 117.748 23.1814 117.626 22.9732C117.504 22.7744 117.336 22.5946 117.139 22.4431C116.943 22.2917 116.718 22.1781 116.475 22.1024C116.231 22.0266 115.969 21.9888 115.679 21.9888C114.743 21.9888 113.844 22.1592 112.983 22.4999C112.122 22.8407 111.298 23.3423 110.511 23.9955C109.725 24.6581 109.135 25.3869 108.742 26.182C108.349 26.9771 108.152 27.829 108.152 28.7472C108.152 29.1732 108.199 29.5612 108.302 29.9115C108.405 30.2712 108.555 30.593 108.751 30.877C108.948 31.1515 109.201 31.3502 109.5 31.4733C109.8 31.5963 110.165 31.6626 110.577 31.6626C110.989 31.6626 111.391 31.6058 111.756 31.4922C112.122 31.3786 112.468 31.2177 112.786 31C113.105 30.7634 113.442 30.4794 113.788 30.1386C114.144 29.7979 114.509 29.4193 114.893 28.9933C114.958 29.211 115.033 29.4855 115.108 29.8073C115.183 30.1292 115.267 30.4889 115.37 30.877C115.501 31.1515 115.726 31.3502 116.035 31.4733C116.344 31.5963 116.737 31.6626 117.205 31.6626C117.635 31.6626 118.066 31.5963 118.469 31.4638C118.881 31.3313 119.283 31.1041 119.686 30.8012C120.013 30.5646 120.322 30.309 120.622 30.0251C120.622 30.044 120.622 30.0629 120.64 30.0818C120.743 30.3942 120.893 30.6782 121.09 30.9338C121.305 31.1893 121.558 31.3692 121.839 31.4922C122.12 31.6058 122.447 31.6721 122.822 31.6721C123.243 31.6721 123.617 31.6342 123.936 31.5679C124.263 31.5017 124.554 31.407 124.806 31.284C125.059 31.1515 125.387 30.9338 125.789 30.6498C126.192 30.3658 126.669 29.9967 127.222 29.5612L125.34 32.3252L122.578 36.2913C122.279 36.7267 121.942 37.1337 121.586 37.4839C121.23 37.8436 120.856 38.156 120.472 38.4494C120.069 38.7334 119.648 38.9511 119.218 39.0931C118.778 39.2351 118.338 39.3108 117.888 39.3108C117.439 39.3108 117.055 39.2256 116.699 39.0552C116.344 38.8848 116.025 38.6293 115.754 38.298C115.464 37.9761 115.258 37.6165 115.127 37.2189C114.996 36.8213 114.93 36.4049 114.93 35.96C114.93 35.4678 115.005 35.0418 115.145 34.6727C115.286 34.3035 115.501 34.0101 115.782 33.7734C116.063 33.5368 116.409 33.3569 116.802 33.2434C117.195 33.1298 117.626 33.0635 118.094 33.0635L118.122 32.7606H117.72C116.887 32.7606 116.119 32.8079 115.436 32.9026C114.752 32.9972 114.125 33.1392 113.573 33.3191C113.039 33.5084 112.627 33.8113 112.356 34.2467C112.084 34.6821 111.944 35.2311 111.944 35.9127C111.944 36.5942 112.084 37.1148 112.374 37.5786C112.655 38.0424 113.095 38.421 113.685 38.7145C114.256 38.9984 114.864 39.2256 115.51 39.3771C116.156 39.5285 116.83 39.6042 117.532 39.6042C118.534 39.6042 119.517 39.4622 120.463 39.1688C121.408 38.8848 122.344 38.4589 123.262 37.9004C124.179 37.323 125.022 36.6794 125.771 35.96C126.519 35.2406 127.184 34.4266 127.755 33.5368C127.886 33.3191 128.027 33.0824 128.158 32.8269C128.289 32.5713 128.439 32.3157 128.607 32.0602C128.757 31.8046 128.982 31.5869 129.281 31.3881C129.581 31.1988 129.955 31.0095 130.386 30.8391C130.816 30.6687 131.294 30.4037 131.818 30.0535C132.333 29.6938 132.904 29.2583 133.531 28.7283C134.149 28.1887 134.758 27.6019 135.366 26.9677C135.965 26.3335 136.574 25.633 137.173 24.8758L137.023 24.7527V24.7338ZM116.746 25.4532C116.447 26.1915 115.997 27.0055 115.417 27.9048C114.818 28.8229 114.247 29.5044 113.722 29.9493C113.198 30.3942 112.702 30.6214 112.253 30.6214C112.122 30.6214 112 30.5835 111.897 30.5173C111.794 30.451 111.71 30.3374 111.625 30.186C111.56 30.0535 111.504 29.9115 111.466 29.7695C111.429 29.6275 111.401 29.4761 111.401 29.3151C111.401 28.7283 111.532 28.0657 111.775 27.3368C112.028 26.5985 112.412 25.7939 112.927 24.9136C113.451 24.0333 113.966 23.3707 114.499 22.9353C115.024 22.4904 115.548 22.2727 116.072 22.2727C116.222 22.2727 116.362 22.3011 116.503 22.3579C116.634 22.4147 116.765 22.5188 116.877 22.6514C116.98 22.7744 117.055 22.9069 117.121 23.0584C117.186 23.2098 117.205 23.3613 117.205 23.5127C117.205 24.0712 117.055 24.7149 116.755 25.4532M129.178 25.5952C128.888 26.3429 128.476 27.1664 127.924 28.0562C127.371 28.9365 126.819 29.5991 126.267 30.0535C125.714 30.4983 125.171 30.7255 124.638 30.7255C124.488 30.7255 124.357 30.6876 124.235 30.6214C124.114 30.5551 124.02 30.451 123.936 30.3185C123.87 30.186 123.814 30.044 123.777 29.902C123.739 29.76 123.711 29.5991 123.711 29.4193C123.711 28.8135 123.842 28.1319 124.085 27.3936C124.338 26.6364 124.722 25.8223 125.237 24.942C125.761 24.0428 126.285 23.3802 126.819 22.9353C127.353 22.4904 127.896 22.2727 128.448 22.2727C128.598 22.2727 128.738 22.3106 128.879 22.3863C129.01 22.462 129.141 22.5662 129.253 22.6987C129.365 22.8312 129.459 22.9827 129.515 23.1341C129.571 23.2856 129.599 23.437 129.599 23.5885C129.599 24.1848 129.459 24.8474 129.169 25.5952" fill="#F9F9F9"/>
<path d="M141.375 14.3218L133.942 31.3882H136.61L138.277 27.1666H146.309L148.003 31.3882H150.671L143.454 14.3218H141.375ZM139.091 25.1409L142.283 17.3129H142.33L145.476 25.1409H139.091Z" fill="#F9F9F9"/>
<path d="M159.912 20.7009C159.537 20.3507 159.097 20.0856 158.601 19.9152C158.105 19.7449 157.581 19.6597 157.038 19.6597C156.167 19.6597 155.39 19.849 154.726 20.2276C154.061 20.6062 153.593 21.0984 153.321 21.7042H153.275V19.9436H151.131V31.3686H153.275V25.4905C153.275 24.8279 153.35 24.2599 153.509 23.7772C153.668 23.2945 153.892 22.8969 154.173 22.5845C154.454 22.2722 154.791 22.045 155.175 21.8935C155.559 21.7516 155.971 21.6758 156.411 21.6758C156.748 21.6758 157.066 21.7326 157.375 21.8368C157.684 21.9409 157.955 22.1113 158.199 22.3479C158.442 22.5845 158.629 22.8874 158.77 23.2661C158.91 23.6447 158.985 24.099 158.985 24.6291V31.3781H161.129V24.0233C161.129 23.2661 161.017 22.6129 160.792 22.0639C160.567 21.5149 160.268 21.0606 159.903 20.7009" fill="#F9F9F9"/>
<path d="M171.659 29.3054V23.4746C171.659 22.9729 171.565 22.4996 171.388 22.0453C171.2 21.5909 170.92 21.1839 170.545 20.8242C170.171 20.4645 169.674 20.19 169.075 19.9818C168.476 19.7736 167.765 19.6694 166.941 19.6694C166.117 19.6694 165.349 19.8114 164.554 20.0954C163.758 20.3794 163.056 20.7958 162.457 21.3638L163.749 22.7079C163.936 22.5659 164.142 22.4145 164.348 22.2535C164.554 22.0926 164.788 21.9506 165.041 21.8276C165.293 21.7045 165.574 21.6099 165.883 21.5247C166.192 21.449 166.557 21.4016 166.969 21.4016C167.428 21.4016 167.83 21.4679 168.158 21.6099C168.495 21.7424 168.766 21.9317 168.991 22.1589C169.216 22.3955 169.384 22.6511 169.497 22.9445C169.609 23.238 169.665 23.5219 169.665 23.8154V24.2981H168.092C167.231 24.2981 166.426 24.3644 165.677 24.5063C164.919 24.6483 164.264 24.866 163.702 25.1784C163.14 25.4908 162.691 25.8978 162.373 26.3995C162.045 26.9011 161.886 27.5164 161.886 28.2547C161.886 28.8227 161.989 29.3149 162.195 29.7408C162.401 30.1668 162.681 30.5265 163.037 30.8104C163.393 31.0944 163.814 31.3121 164.292 31.4636C164.769 31.6055 165.265 31.6813 165.789 31.6813C166.651 31.6813 167.4 31.5298 168.055 31.2269C168.71 30.924 169.272 30.4034 169.749 29.6651H169.796C169.796 30.2425 169.815 30.8199 169.871 31.3973H171.781C171.753 31.0944 171.725 30.7726 171.706 30.4318C171.687 30.091 171.687 29.7219 171.687 29.3243M169.656 26.6077C169.656 26.9958 169.6 27.3839 169.487 27.7814C169.375 28.179 169.197 28.5292 168.935 28.8511C168.682 29.1729 168.345 29.4285 167.933 29.6367C167.521 29.8355 167.016 29.9396 166.435 29.9396C165.686 29.9396 165.097 29.7976 164.657 29.5042C164.217 29.2107 164.001 28.7375 164.001 28.0843C164.001 27.63 164.142 27.2608 164.423 26.9769C164.704 26.6834 165.059 26.4657 165.499 26.3048C165.939 26.1439 166.417 26.0398 166.95 25.983C167.484 25.9262 167.999 25.8978 168.514 25.8978H169.656V26.6172V26.6077Z" fill="#F9F9F9"/>
<path d="M174.852 13.1572H172.708V31.3785H174.852V13.1572Z" fill="#F9F9F9"/>
<path d="M192.396 29.6462C191.984 29.6462 191.665 29.5705 191.45 29.4191C191.235 29.2676 191.076 29.0688 190.973 28.8133C190.87 28.5577 190.814 28.2832 190.795 27.9708C190.776 27.6585 190.776 27.3366 190.776 27.0148V21.8371H193.847V19.9535H190.776V16.7446H188.632V19.9535H184.56L181.349 28.87H181.302L177.96 19.9535H175.479L180.151 31.4447L179.458 33.2526C179.346 33.546 179.233 33.8016 179.13 34.0288C179.018 34.256 178.878 34.4547 178.719 34.6157C178.559 34.7766 178.353 34.9091 178.129 35.0037C177.904 35.0889 177.623 35.1363 177.286 35.1363C176.856 35.1363 176.434 35.0511 176.004 34.8712L175.742 36.8495C176.041 36.9821 176.35 37.0578 176.678 37.1051C177.005 37.143 177.324 37.1619 177.642 37.1619C178.232 37.1619 178.719 37.0767 179.121 36.9253C179.524 36.7643 179.87 36.5372 180.151 36.2532C180.432 35.9692 180.684 35.619 180.89 35.2025C181.096 34.7955 181.293 34.3412 181.49 33.8395L186.161 21.7519V21.8466H188.642V27.8004C188.642 28.2642 188.66 28.7281 188.698 29.1824C188.735 29.6368 188.866 30.0532 189.082 30.4224C189.297 30.7916 189.634 31.0945 190.083 31.3311C190.533 31.5583 191.179 31.6813 192.002 31.6813C192.227 31.6813 192.536 31.6529 192.948 31.5961C193.35 31.5393 193.678 31.4352 193.94 31.2932V29.3149C193.716 29.4474 193.472 29.5326 193.201 29.58C192.929 29.6273 192.667 29.6557 192.414 29.6557" fill="#F9F9F9"/>
<path d="M197.947 14.2739C197.516 14.2739 197.151 14.4348 196.842 14.7472C196.533 15.0596 196.374 15.4382 196.374 15.8641C196.374 16.2901 196.533 16.6687 196.842 16.9811C197.151 17.2934 197.525 17.4544 197.947 17.4544C198.368 17.4544 198.742 17.2934 199.051 16.9811C199.36 16.6687 199.519 16.2901 199.519 15.8641C199.519 15.4382 199.36 15.0596 199.051 14.7472C198.742 14.4348 198.368 14.2739 197.947 14.2739Z" fill="#F9F9F9"/>
<path d="M197.469 19.9531H195.325V31.3781H197.469V19.9531Z" fill="#F9F9F9"/>
<path d="M216.511 25.7841C216.221 25.5285 215.865 25.3203 215.462 25.1594C215.06 24.9984 214.629 24.8659 214.161 24.7523C213.927 24.705 213.637 24.6482 213.3 24.582C212.963 24.5157 212.654 24.421 212.354 24.298C212.064 24.1655 211.811 24.0046 211.596 23.7869C211.381 23.5786 211.278 23.3041 211.278 22.9633C211.278 22.5469 211.465 22.225 211.839 22.0073C212.214 21.7896 212.654 21.6855 213.159 21.6855C213.702 21.6855 214.161 21.7896 214.526 22.0073C214.901 22.225 215.21 22.4901 215.472 22.8119L217.138 21.534C216.726 20.862 216.164 20.3792 215.472 20.0858C214.77 19.7924 214.039 19.6504 213.281 19.6504C212.757 19.6504 212.233 19.7261 211.718 19.8681C211.203 20.0101 210.744 20.2278 210.332 20.5212C209.93 20.8052 209.602 21.1744 209.359 21.6192C209.115 22.0641 208.994 22.5847 208.994 23.1716C208.994 23.7206 209.087 24.1749 209.274 24.5441C209.462 24.9133 209.724 25.2162 210.042 25.4623C210.36 25.7084 210.725 25.8977 211.137 26.0397C211.549 26.1816 211.989 26.3142 212.448 26.4278C212.682 26.4751 212.963 26.5319 213.272 26.6076C213.581 26.6833 213.871 26.778 214.152 26.901C214.433 27.0241 214.667 27.185 214.863 27.3932C215.06 27.6015 215.163 27.8665 215.163 28.1884C215.163 28.4345 215.097 28.6427 214.957 28.8225C214.826 29.0119 214.648 29.1633 214.433 29.2769C214.217 29.3999 213.974 29.4851 213.693 29.5419C213.412 29.5987 213.141 29.6271 212.869 29.6271C212.251 29.6271 211.727 29.4946 211.296 29.2201C210.866 28.9456 210.482 28.6332 210.126 28.283L208.535 29.6082L207.29 28.3493C206.925 28.7658 206.532 29.0876 206.101 29.3053C205.67 29.523 205.155 29.6271 204.556 29.6271C204.004 29.6271 203.498 29.523 203.058 29.3242C202.609 29.1254 202.235 28.8509 201.916 28.4913C201.598 28.141 201.355 27.7245 201.177 27.2513C200.999 26.778 200.915 26.2763 200.915 25.7462C200.915 25.2162 200.99 24.705 201.139 24.2128C201.289 23.7206 201.514 23.2852 201.804 22.9066C202.094 22.5279 202.459 22.2345 202.899 22.0168C203.339 21.7991 203.845 21.695 204.435 21.695C205.024 21.695 205.558 21.7991 205.998 22.0168C206.438 22.2345 206.85 22.5563 207.252 22.9728L208.872 21.4772C208.31 20.8715 207.664 20.4171 206.906 20.1142C206.148 19.8208 205.361 19.6693 204.538 19.6693C203.648 19.6693 202.843 19.8208 202.122 20.1142C201.401 20.4076 200.784 20.8241 200.259 21.3542C199.744 21.8843 199.342 22.5185 199.052 23.2568C198.771 23.9951 198.621 24.8091 198.621 25.6894C198.621 26.5697 198.762 27.3838 199.052 28.1126C199.342 28.8415 199.744 29.4662 200.269 29.9963C200.793 30.5169 201.42 30.9239 202.141 31.2173C202.862 31.5108 203.658 31.6528 204.538 31.6528C205.361 31.6528 206.148 31.5202 206.887 31.2457C207.599 30.9807 208.226 30.5453 208.769 29.9584C209.265 30.5547 209.808 30.9807 210.407 31.2268C211.109 31.5202 211.933 31.6622 212.879 31.6622C213.431 31.6622 213.983 31.596 214.536 31.4729C215.088 31.3404 215.575 31.1321 216.005 30.8482C216.436 30.5547 216.782 30.1856 217.054 29.7312C217.325 29.2769 217.456 28.7184 217.456 28.0842C217.456 27.5542 217.372 27.0998 217.204 26.7307C217.035 26.3615 216.81 26.0491 216.511 25.7936" fill="#F9F9F9"/>
<path d="M222.726 18.4961L221.931 20.7962H221.902L221.107 18.4961H220.255V21.4967H220.817V18.9978H220.826L221.687 21.4967H222.146L223.007 18.9978H223.017V21.4967H223.578V18.4961H222.726Z" fill="#F9F9F9"/>
<path d="M217.344 18.9788H218.233V21.4967H218.795V18.9788H219.684V18.4961H217.344V18.9788Z" fill="#F9F9F9"/>
</g>
<defs>
<linearGradient id="paint0_linear_8476_6181" x1="14.3848" y1="67.0656" x2="14.3848" y2="22.0378" gradientUnits="userSpaceOnUse">
<stop stop-color="#18ABE2"/>
<stop offset="0.18" stop-color="#18ABE2"/>
<stop offset="0.57" stop-color="#0075B0"/>
<stop offset="1" stop-color="#0075B0"/>
</linearGradient>
<clipPath id="clip0_8476_6181">
<rect width="223.579" height="48" fill="white"/>
</clipPath>
</defs>
</svg>
